<svg id="Layer_1" data-name="Layer 1" xmlns="http://www.w3.org/2000/svg" viewBox="0 0 160 64"><title>bits-of-freedom-logo-transparent-black-cmyk-payoff</title><path d="M145.77,28.06h-9.06V49.23h4.5v-17h.87l3.63,17h5.13l3.71-17h.91v17H160V28.06h-9.12l-2.6,13.16Zm-91.52,0H38.64V49.22H54.25V45.09H43.14V40.47H53.73V36.39H43.14V32.2H54.25Zm-39.68,0H0V49.22H4.48V40.89h9.39v-4.1H4.48V32.2H14.57ZM12.79,16.25c0,1.78-1.3,2.45-3.81,2.45H4.48V13.93H9.1c2.45,0,3.69.78,3.69,2.32M12.27,8c0,1.45-1.17,2.17-3.5,2.17H4.48V5.8H8.59c2.63,0,3.68.58,3.68,2.18m2.36,3.83A5.18,5.18,0,0,0,16.8,7.53c0-3.78-2.87-5.86-7.3-5.86H0V22.83H10a7.91,7.91,0,0,0,5.28-1.69,5.61,5.61,0,0,0,2-4.5,5.73,5.73,0,0,0-2.68-4.83m6.4,11h10.5v-4.1h-3v-13h3V1.67H21v4.1h3v13H21Zm0,0h10.5v-4.1h-3v-13h3V1.67H21v4.1h3v13H21Zm9.48,12c0,1.91-1.18,2.75-3.75,2.75H22.63V32.2h4.13c2.39,0,3.75.9,3.75,2.62M35,34.64a5.71,5.71,0,0,0-2.27-4.83,9.4,9.4,0,0,0-6-1.75H18.13V49.22h4.5V41.68H25c2.33,0,3.66.78,4.17,1.84a10.7,10.7,0,0,1,.75,2.29l.82,3.41h4.77l-1.18-4.4a6.46,6.46,0,0,0-3.14-4.56A6.15,6.15,0,0,0,35,34.64M45.27,5.8h6.07V1.67H34.73V5.8H40.8v17h4.47ZM58.49,7.53c0-1.24,1.21-2.09,3.11-2.09A7.36,7.36,0,0,1,67,7.89l3-3.17a10.71,10.71,0,0,0-8.15-3.38,8.81,8.81,0,0,0-5.53,1.75A5.45,5.45,0,0,0,54,7.74c0,3.5,2.53,5.64,6.67,6.34l2.6.45c2,.36,3,1.12,3,2.23,0,1.33-1.39,2.3-3.68,2.3a7.29,7.29,0,0,1-6-3l-3.08,3.11a11.23,11.23,0,0,0,8.79,4,9.76,9.76,0,0,0,6.1-1.78,5.61,5.61,0,0,0,2.32-4.68q0-5.47-7.12-6.61l-2.09-.33c-2-.36-3-1.12-3-2.23m.08,41.69H84.52V45.09H63.07V40.47H84V36.39H63.07V32.2H84.52V28.06H58.57Zm45.08-10.71c0,4.37-2.63,6.58-7.91,6.58H93.93V32.2h1.78c5.28,0,7.94,2.11,7.94,6.31m4.56,0c0-3.66-1.48-6.55-3.81-8.12a13.84,13.84,0,0,0-8-2.33h-7V49.23h7a13.92,13.92,0,0,0,8-2.45,9.89,9.89,0,0,0,3.77-8.27m9.39-4.62A6,6,0,0,1,122.25,32a5.79,5.79,0,0,1,4.5,2,6.81,6.81,0,0,1,1.78,4.71,7,7,0,0,1-1.72,4.77,5.72,5.72,0,0,1-4.56,1.93,5.84,5.84,0,0,1-4.65-1.93,6.9,6.9,0,0,1-1.72-4.77,6.88,6.88,0,0,1,1.72-4.74m4.53-6.16a10.68,10.68,0,0,0-10.87,10.9,10.63,10.63,0,0,0,10.87,10.93,10.77,10.77,0,0,0,7.79-3.08,10.56,10.56,0,0,0,3.17-7.85,10.41,10.41,0,0,0-3.17-7.79,10.68,10.68,0,0,0-7.79-3.11m15.15-15.49A6.9,6.9,0,0,1,135.56,17,5.75,5.75,0,0,1,131,18.94,5.9,5.9,0,0,1,126.35,17a7,7,0,0,1-1.72-4.77,6.89,6.89,0,0,1,1.72-4.74A6,6,0,0,1,131,5.56a5.8,5.8,0,0,1,4.5,2,6.73,6.73,0,0,1,1.78,4.71m1.39,7.84a10.52,10.52,0,0,0,3.17-7.84,10.41,10.41,0,0,0-3.17-7.79,10.62,10.62,0,0,0-7.79-3.11A10.68,10.68,0,0,0,120,12.24a10.63,10.63,0,0,0,10.87,10.92,10.72,10.72,0,0,0,7.79-3.08M160,5.8V1.67H145.4V22.83h4.5V14.5h9.39V10.39H149.9V5.8Z"/><path d="M0,55.36H.9l1.84,6.71h.13l1.85-6.71h.9l-2,7.08H2Z"/><path d="M11.51,60a2.75,2.75,0,0,1-.21,1.11,2.47,2.47,0,0,1-.55.81,2.64,2.64,0,0,1-.8.5,2.85,2.85,0,0,1-1,.17,2.77,2.77,0,0,1-1-.17,2.64,2.64,0,0,1-.8-.5,2.47,2.47,0,0,1-.55-.81A2.75,2.75,0,0,1,6.47,60v-.12a2.73,2.73,0,0,1,.21-1.1A2.35,2.35,0,0,1,7.24,58a2.48,2.48,0,0,1,.8-.51,2.74,2.74,0,0,1,1.9,0,2.48,2.48,0,0,1,.8.51,2.35,2.35,0,0,1,.56.81,2.73,2.73,0,0,1,.21,1.1ZM9,61.83a1.63,1.63,0,0,0,.67-.13,1.34,1.34,0,0,0,.54-.37,1.65,1.65,0,0,0,.37-.58A2.24,2.24,0,0,0,10.7,60v-.12a2.17,2.17,0,0,0-.13-.74,1.79,1.79,0,0,0-.37-.59,1.58,1.58,0,0,0-.54-.37,1.67,1.67,0,0,0-1.34,0,1.58,1.58,0,0,0-.54.37,1.79,1.79,0,0,0-.37.59,2.17,2.17,0,0,0-.13.74V60a2.24,2.24,0,0,0,.13.76,1.65,1.65,0,0,0,.37.58,1.34,1.34,0,0,0,.54.37A1.63,1.63,0,0,0,9,61.83Z"/><path d="M17.69,60a2.75,2.75,0,0,1-.21,1.11,2.33,2.33,0,0,1-.55.81,2.52,2.52,0,0,1-.8.5,2.8,2.8,0,0,1-.95.17,2.77,2.77,0,0,1-1-.17,2.52,2.52,0,0,1-.8-.5,2.33,2.33,0,0,1-.55-.81A2.75,2.75,0,0,1,12.66,60v-.12a2.73,2.73,0,0,1,.21-1.1,2.33,2.33,0,0,1,.55-.81,2.42,2.42,0,0,1,.81-.51,2.75,2.75,0,0,1,.95-.17,2.8,2.8,0,0,1,.95.17,2.48,2.48,0,0,1,.8.51,2.33,2.33,0,0,1,.55.81,2.73,2.73,0,0,1,.21,1.1Zm-2.51,1.84a1.67,1.67,0,0,0,.67-.13,1.49,1.49,0,0,0,.54-.37,1.78,1.78,0,0,0,.36-.58,2,2,0,0,0,.13-.76v-.12a1.94,1.94,0,0,0-.49-1.33,1.72,1.72,0,0,0-.55-.37,1.65,1.65,0,0,0-1.33,0,1.72,1.72,0,0,0-.55.37,1.94,1.94,0,0,0-.49,1.33V60a2,2,0,0,0,.13.76,1.78,1.78,0,0,0,.36.58,1.49,1.49,0,0,0,.54.37A1.68,1.68,0,0,0,15.18,61.83Z"/><path d="M18.86,57.42h1.82v.67h.12a1.27,1.27,0,0,1,.55-.61,1.68,1.68,0,0,1,.81-.2,1.61,1.61,0,0,1,1.22.5,2.13,2.13,0,0,1,.5,1.44l-.83.12a1.27,1.27,0,0,0-.34-1,1.24,1.24,0,0,0-1.35-.19,1,1,0,0,0-.38.33,1.64,1.64,0,0,0-.23.5,2.92,2.92,0,0,0-.07.61v2.12H22v.73H18.74v-.73H19.9V58.15h-1Z"/><path d="M32.06,57.42h2.79v6.25a.76.76,0,0,1-.21.56.78.78,0,0,1-.57.23H31.82v-.73h2q.27,0,.27-.3V58.15h-2Zm1.68-1.49a.72.72,0,0,1,.71-.71.69.69,0,0,1,.5.21.67.67,0,0,1,.21.5.69.69,0,0,1-.21.5.68.68,0,0,1-.5.2.66.66,0,0,1-.5-.2A.69.69,0,0,1,33.74,55.93Z"/><path d="M42.43,60a2.93,2.93,0,0,1-.2,1.11,2.49,2.49,0,0,1-.56.81,2.41,2.41,0,0,1-.8.5,2.8,2.8,0,0,1-.95.17,2.77,2.77,0,0,1-1-.17,2.52,2.52,0,0,1-.8-.5,2.33,2.33,0,0,1-.55-.81A2.75,2.75,0,0,1,37.4,60v-.12a2.73,2.73,0,0,1,.21-1.1,2.33,2.33,0,0,1,.55-.81,2.53,2.53,0,0,1,.81-.51,2.75,2.75,0,0,1,1-.17,2.8,2.8,0,0,1,.95.17,2.44,2.44,0,0,1,1.36,1.32,2.92,2.92,0,0,1,.2,1.1Zm-2.51,1.84a1.67,1.67,0,0,0,.67-.13,1.49,1.49,0,0,0,.54-.37,1.63,1.63,0,0,0,.36-.58,2,2,0,0,0,.13-.76v-.12a2,2,0,0,0-.13-.74,1.77,1.77,0,0,0-.36-.59,1.72,1.72,0,0,0-.55-.37,1.65,1.65,0,0,0-1.33,0,1.72,1.72,0,0,0-.55.37,1.94,1.94,0,0,0-.49,1.33V60a2,2,0,0,0,.13.76,1.78,1.78,0,0,0,.36.58,1.49,1.49,0,0,0,.54.37A1.68,1.68,0,0,0,39.92,61.83Z"/><path d="M47.47,57.42h.78v5h-.78v-.91h-.13a2,2,0,0,1-.63.76,1.69,1.69,0,0,1-1,.29,2.15,2.15,0,0,1-.77-.14,1.53,1.53,0,0,1-.59-.41,1.81,1.81,0,0,1-.39-.68,2.92,2.92,0,0,1-.13-.94v-3h.79v2.89a1.71,1.71,0,0,0,.32,1.16,1.25,1.25,0,0,0,1,.36,1.39,1.39,0,0,0,1.13-.49A2,2,0,0,0,47.47,60Z"/><path d="M54.41,62.44H53l-.6-4.65h-.12l-.61,4.65H50.16l-.78-5h.8l.67,4.65H51l.59-4.65H53l.59,4.65h.12l.67-4.65h.81Z"/><path d="M62.56,61.71h1.76V58.15H62.75v-.73h2.36v4.29h1.64v.73H62.56ZM64,55.93a.67.67,0,0,1,.21-.5.66.66,0,0,1,.5-.21.69.69,0,0,1,.5.21.66.66,0,0,1,.2.5.68.68,0,0,1-.7.7.65.65,0,0,1-.5-.2A.69.69,0,0,1,64,55.93Z"/><path d="M69.42,62.44h-.79v-5h.79v.85h.12a1.65,1.65,0,0,1,1.62-1,1.82,1.82,0,0,1,1.38.54,2.28,2.28,0,0,1,.52,1.62v3h-.79V59.61a1.73,1.73,0,0,0-.36-1.19A1.21,1.21,0,0,0,71,58a1.36,1.36,0,0,0-1.12.49,1.94,1.94,0,0,0-.41,1.31Z"/><path d="M74.64,57.42h1.58V55.36H77v2.06H79v.73H77v3.26q0,.3.27.3H78.7v.73H77a.77.77,0,0,1-.78-.79v-3.5H74.64Z"/><path d="M81.57,60.17a1.81,1.81,0,0,0,.47,1.2,1.57,1.57,0,0,0,1.21.46,2.28,2.28,0,0,0,.62-.08,1.88,1.88,0,0,0,.45-.22,1.55,1.55,0,0,0,.3-.33,2.09,2.09,0,0,0,.19-.4l.75.2a2.24,2.24,0,0,1-.79,1.14,2.47,2.47,0,0,1-1.54.44,2.45,2.45,0,0,1-1-.19,2.21,2.21,0,0,1-.78-.53A2.51,2.51,0,0,1,81,61a3,3,0,0,1-.18-1v-.24a2.63,2.63,0,0,1,.18-1,2.41,2.41,0,0,1,.52-.79,2.62,2.62,0,0,1,.79-.51,2.59,2.59,0,0,1,2,0,2.49,2.49,0,0,1,.74.56,2.14,2.14,0,0,1,.42.73,2.24,2.24,0,0,1,.14.73v.64ZM83.25,58a1.59,1.59,0,0,0-.62.11,1.64,1.64,0,0,0-.5.29,1.55,1.55,0,0,0-.36.45,1.58,1.58,0,0,0-.17.56h3.23a1.39,1.39,0,0,0-.16-.58,1.43,1.43,0,0,0-.35-.45,1.74,1.74,0,0,0-.5-.28A1.56,1.56,0,0,0,83.25,58Z"/><path d="M86.9,57.42h1.82v.67h.12a1.27,1.27,0,0,1,.55-.61,1.74,1.74,0,0,1,2,.3,2.13,2.13,0,0,1,.49,1.44l-.83.12a1.31,1.31,0,0,0-.33-1,1.25,1.25,0,0,0-1.36-.19,1.1,1.1,0,0,0-.38.33,1.62,1.62,0,0,0-.22.5,2.37,2.37,0,0,0-.07.61v2.12H90v.73H86.78v-.73h1.15V58.15h-1Z"/><path d="M94.16,62.44h-.79v-5h.79v.85h.12a1.65,1.65,0,0,1,1.62-1,1.81,1.81,0,0,1,1.38.54,2.28,2.28,0,0,1,.52,1.62v3H97V59.61a1.73,1.73,0,0,0-.36-1.19,1.21,1.21,0,0,0-1-.39,1.36,1.36,0,0,0-1.12.49,1.94,1.94,0,0,0-.41,1.31Z"/><path d="M100.13,60.17a1.76,1.76,0,0,0,.47,1.2,1.55,1.55,0,0,0,1.21.46,2.2,2.2,0,0,0,.61-.08,1.57,1.57,0,0,0,.45-.22,1.37,1.37,0,0,0,.31-.33,2,2,0,0,0,.18-.4l.75.2a2.22,2.22,0,0,1-.78,1.14,2.49,2.49,0,0,1-1.54.44,2.46,2.46,0,0,1-1-.19,2.08,2.08,0,0,1-.77-.53,2.53,2.53,0,0,1-.51-.82,3,3,0,0,1-.18-1v-.24a2.45,2.45,0,0,1,.19-1,2.27,2.27,0,0,1,.52-.79,2.51,2.51,0,0,1,1.76-.7,2.33,2.33,0,0,1,1.06.23,2.37,2.37,0,0,1,.74.56,2.17,2.17,0,0,1,.43.73,2.21,2.21,0,0,1,.13.73v.64ZM101.81,58a1.59,1.59,0,0,0-.62.11,1.48,1.48,0,0,0-.86.74,1.84,1.84,0,0,0-.18.56h3.23a1.38,1.38,0,0,0-.15-.58,1.33,1.33,0,0,0-.36-.45,1.69,1.69,0,0,0-.49-.28A1.63,1.63,0,0,0,101.81,58Z"/><path d="M105.57,57.42h1.57V55.36h.79v2.06h1.94v.73h-1.94v3.26c0,.2.09.3.28.3h1.42v.73h-1.71a.75.75,0,0,1-.56-.23.77.77,0,0,1-.22-.56v-3.5h-1.57Z"/><path d="M114.91,62.44h-1.56l-1.75-5h.93l1.54,4.65h.12l1.53-4.65h.93Z"/><path d="M117.83,57.42h1.82v.67h.12a1.3,1.3,0,0,1,.54-.61,1.68,1.68,0,0,1,.81-.2,1.59,1.59,0,0,1,1.22.5,2.13,2.13,0,0,1,.5,1.44l-.83.12a1.31,1.31,0,0,0-.33-1,1.16,1.16,0,0,0-.82-.31,1.13,1.13,0,0,0-.54.12,1.1,1.1,0,0,0-.38.33,1.41,1.41,0,0,0-.22.5,2.37,2.37,0,0,0-.07.61v2.12h1.27v.73h-3.21v-.73h1.15V58.15h-1Z"/><path d="M124.42,61.71h1.75V58.15H124.6v-.73H127v4.29h1.64v.73h-4.18Zm1.43-5.78a.72.72,0,0,1,.71-.71.69.69,0,0,1,.5.21.67.67,0,0,1,.21.5.69.69,0,0,1-.21.5.68.68,0,0,1-.5.2.66.66,0,0,1-.5-.2A.69.69,0,0,1,125.85,55.93Z"/><path d="M131,57.42h2.79v6.25a.77.77,0,0,1-.22.56.75.75,0,0,1-.56.23h-2.26v-.73h2c.19,0,.28-.1.28-.3V58.15h-2Zm1.67-1.49a.67.67,0,0,1,.21-.5.69.69,0,0,1,.5-.21.72.72,0,0,1,.71.71.69.69,0,0,1-.21.5.66.66,0,0,1-.5.2.68.68,0,0,1-.5-.2A.69.69,0,0,1,132.7,55.93Z"/><path d="M137.45,62.44h-.78V55.36h.78v3h.12a2,2,0,0,1,.66-.77,1.85,1.85,0,0,1,1-.28,1.74,1.74,0,0,1,1.33.54,2.28,2.28,0,0,1,.51,1.62v3h-.79V59.61a1.73,1.73,0,0,0-.35-1.19,1.24,1.24,0,0,0-1-.39,1.39,1.39,0,0,0-1.13.49,2,2,0,0,0-.41,1.31Z"/><path d="M143.43,60.17a1.76,1.76,0,0,0,.46,1.2,1.58,1.58,0,0,0,1.21.46,2.22,2.22,0,0,0,.62-.08,1.57,1.57,0,0,0,.45-.22,1.15,1.15,0,0,0,.3-.33,2.09,2.09,0,0,0,.19-.4l.75.2a2.22,2.22,0,0,1-.78,1.14,2.52,2.52,0,0,1-1.55.44,2.45,2.45,0,0,1-1-.19,2.08,2.08,0,0,1-.77-.53,2.37,2.37,0,0,1-.51-.82,3,3,0,0,1-.18-1v-.24a2.45,2.45,0,0,1,.19-1,2.14,2.14,0,0,1,.52-.79,2.45,2.45,0,0,1,.78-.51,2.4,2.4,0,0,1,1-.19,2.34,2.34,0,0,1,1.81.79,2.14,2.14,0,0,1,.42.73,2.24,2.24,0,0,1,.14.73v.64ZM145.1,58a1.59,1.59,0,0,0-.62.11,1.64,1.64,0,0,0-.5.29,1.55,1.55,0,0,0-.36.45,1.58,1.58,0,0,0-.17.56h3.23a1.26,1.26,0,0,0-.16-.58,1.3,1.3,0,0,0-.35-.45,1.69,1.69,0,0,0-.49-.28A1.65,1.65,0,0,0,145.1,58Z"/><path d="M149.16,61.71h1.76V58.15h-1.58v-.73h2.36v4.29h1.64v.73h-4.18Zm1.43-5.78a.72.72,0,0,1,.71-.71.69.69,0,0,1,.5.21.67.67,0,0,1,.21.5.69.69,0,0,1-.21.5.68.68,0,0,1-.5.2.66.66,0,0,1-.5-.2A.69.69,0,0,1,150.59,55.93Z"/><path d="M159.1,61.67H159a1.35,1.35,0,0,1-.31.4,1.85,1.85,0,0,1-.4.29,2.51,2.51,0,0,1-.46.16,2,2,0,0,1-.47.06,2.66,2.66,0,0,1-.94-.17,2.28,2.28,0,0,1-.76-.5,2.36,2.36,0,0,1-.52-.8,3.13,3.13,0,0,1-.18-1.1v-.16a2.86,2.86,0,0,1,.19-1.09,2.4,2.4,0,0,1,.52-.81,2.15,2.15,0,0,1,.75-.5,2.59,2.59,0,0,1,.92-.17,2.13,2.13,0,0,1,1,.23,1.56,1.56,0,0,1,.69.7h.12V55.36h.79v7.08h-.79Zm-1.68.16a1.59,1.59,0,0,0,.66-.13,1.52,1.52,0,0,0,.53-.38,1.78,1.78,0,0,0,.36-.58,2,2,0,0,0,.13-.75v-.12a1.94,1.94,0,0,0-.49-1.33,1.64,1.64,0,0,0-.53-.37,1.68,1.68,0,0,0-1.32,0,1.64,1.64,0,0,0-.53.37,1.83,1.83,0,0,0-.36.58,2.17,2.17,0,0,0-.12.74V60a2.24,2.24,0,0,0,.12.76,1.68,1.68,0,0,0,.36.57,1.39,1.39,0,0,0,.53.36A1.59,1.59,0,0,0,157.42,61.83Z"/></svg>